<svg aria-hidden="true" style="width:0;height:0;position:absolute;overflow:hidden" xmlns="http://www.w3.org/2000/svg"><defs><symbol id="icon-close" viewBox="0 0 32 32"><path d="m18.228 16 13.1-13.1A1.58 1.58 0 0 0 29.1.672L16 13.772 2.9.656A1.586 1.586 0 1 0 .656 2.9L13.772 16 .656 29.1a1.593 1.593 0 0 0-.552 1.139 1.572 1.572 0 0 0 1.003 1.532 1.578 1.578 0 0 0 1.776-.444l13.116-13.1 13.1 13.1a1.58 1.58 0 0 0 2.228-2.229l-13.1-13.1z"/></symbol><symbol id="icon-Vector" viewBox="0 0 52 32"><path d="M27.761 28.887 50.932 4.568a2.182 2.182 0 0 0 0-3.01l-.026-.026a2.002 2.002 0 0 0-2.247-.462c-.25.108-.476.265-.664.462l-21.818 22.9-21.809-22.9A2.012 2.012 0 0 0 2.913.907a1.998 1.998 0 0 0-1.455.625l-.026.026a2.182 2.182 0 0 0 0 3.01l23.171 24.319a2.18 2.18 0 0 0 3.158 0z"/></symbol><symbol id="icon-Toggle" viewBox="0 0 61 32"><path fill="#fff" style="fill:var(--color1,#fff)" d="M15.238 1.223h30.476c8.161 0 14.777 6.616 14.777 14.777s-6.616 14.777-14.777 14.777H15.238C7.077 30.777.461 24.161.461 16S7.077 1.223 15.238 1.223z"/><path fill="#fd5103" style="fill:var(--color2,#fd5103)" d="M25.905 16c0 6.733-5.458 12.19-12.19 12.19S1.525 22.732 1.525 16c0-6.733 5.458-12.19 12.19-12.19S25.905 9.268 25.905 16z"/><path fill="none" stroke="#fd5103" style="stroke:var(--color2,#fd5103)" stroke-width=".921" d="M15.238 1.223h30.476c8.161 0 14.777 6.616 14.777 14.777s-6.616 14.777-14.777 14.777H15.238C7.077 30.777.461 24.161.461 16S7.077 1.223 15.238 1.223z"/></symbol></defs></svg>